<svg t="1632848545836" class="icon" viewBox="0 0 1024 1024" version="1.1" xmlns="http://www.w3.org/2000/svg" p-id="10345" width="300" height="300"><path d="M512 512m-512 0a512 512 0 1 0 1024 0 512 512 0 1 0-1024 0Z" fill="#552C7A" p-id="10346"></path><path d="M511.81 512m-407.006 0a407.006 407.006 0 1 0 814.012 0 407.006 407.006 0 1 0-814.012 0Z" fill="#774197" p-id="10347"></path><path d="M872.848 620.902V216.394a8.866 8.866 0 0 0-8.87-8.868H159.64a8.866 8.866 0 0 0-8.868 8.868v404.508h722.076z" fill="#CDCCCA" p-id="10348"></path><path d="M846.106 272.792l0.02-0.008-0.078-0.17c-0.054-0.132-0.114-0.258-0.176-0.392l-10.432-23.086c-0.002-0.016-0.01-0.026-0.01-0.026l-0.11-0.24-0.014 0.012a8.588 8.588 0 0 0-7.802-5.02H143.814a8.586 8.586 0 0 0-7.802 5.02l-0.012-0.01-0.102 0.222-0.018 0.042-10.432 23.086c-0.06 0.132-0.124 0.258-0.176 0.392l-0.078 0.17 0.022 0.008a8.84 8.84 0 0 0-0.594 3.122V754.584a8.866 8.866 0 0 0 8.87 8.868H422.62l-6.656 29c-1.356 5.914-5.91 14.256-10.142 18.596l-37.416 38.336c-2.364 2.42-2.856 4.342-2.774 5.666h-0.016v9.04h0.012c-0.056 0.796 0.1 1.43 0.286 1.872 0.48 1.148 1.998 3.074 6.714 3.074h226.062c4.714 0 6.23-1.926 6.714-3.074a4.02 4.02 0 0 0 0.286-1.872h0.012v-9.04h-0.014c0.084-1.324-0.412-3.246-2.774-5.666l-37.412-38.336c-4.238-4.34-8.79-12.684-10.148-18.596l-6.652-29h289.126a8.87 8.87 0 0 0 8.87-8.868V275.914c0-1.1-0.23-2.148-0.592-3.122z" fill="#552C7A" p-id="10349"></path><path d="M629.066 828.402l-37.412-38.34c-4.238-4.336-8.79-12.678-10.146-18.598l-14.678-63.972c-1.506-6.57-8.216-11.914-14.958-11.914h-80.122c-6.74 0-13.452 5.344-14.958 11.914l-14.678 63.972c-1.358 5.918-5.914 14.262-10.144 18.598l-37.414 38.34c-3.298 3.378-2.976 5.804-2.496 6.954s2 3.074 6.718 3.074H624.84c4.712 0 6.23-1.926 6.712-3.074 0.49-1.148 0.81-3.574-2.486-6.954z" fill="#E8E9EC" p-id="10350"></path><path d="M391.77 824.446h240.086v9.04H391.77z" fill="#E8E9EC" p-id="10351"></path><path d="M629.066 818.778l-37.412-38.336c-4.238-4.34-8.79-12.684-10.146-18.598l-14.678-63.976c-1.506-6.566-8.216-11.914-14.958-11.914h-80.122c-6.74 0-13.452 5.348-14.958 11.914l-14.678 63.976c-1.358 5.914-5.914 14.258-10.144 18.598l-37.414 38.336c-3.298 3.378-2.976 5.808-2.496 6.958 0.48 1.144 2 3.07 6.718 3.07H624.84c4.712 0 6.23-1.926 6.712-3.07 0.49-1.15 0.81-3.58-2.486-6.958z" fill="#CDCCCA" p-id="10352"></path><path d="M872.848 723.976a8.866 8.866 0 0 1-8.87 8.868H159.64a8.866 8.866 0 0 1-8.868-8.868v-157.192a8.87 8.87 0 0 1 8.868-8.872h704.338a8.87 8.87 0 0 1 8.87 8.872v157.192z" fill="#E8E9EC" p-id="10353"></path><path d="M872.848 649.816V245.308a8.866 8.866 0 0 0-8.87-8.868H159.64a8.866 8.866 0 0 0-8.868 8.868v404.508h722.076z" fill="#E8E9EC" p-id="10354"></path><path d="M846.236 614.39a8.872 8.872 0 0 1-8.874 8.872H186.254a8.872 8.872 0 0 1-8.87-8.872V271.922a8.872 8.872 0 0 1 8.87-8.872h651.11a8.872 8.872 0 0 1 8.874 8.872v342.468z" fill="#2A81C2" p-id="10355"></path><path d="M529.398 694.622c-0.392-5.758 2.028-10.094 6.96-13.17-0.64-0.738-1.218-1.49-1.878-2.15-2.372-2.348-5.3-3.516-8.546-4.058-2.946-0.488-5.712 0.156-8.446 1.138-1.406 0.506-2.826 0.984-4.232 1.488a3.03 3.03 0 0 1-2.074 0.02c-1.492-0.516-2.986-1.042-4.476-1.562-1.686-0.586-3.388-1.118-5.198-1.074-4.004 0.1-7.432 1.614-10.288 4.378-2.854 2.766-4.458 6.208-5.158 10.086-0.172 0.966-0.234 1.956-0.35 2.936-0.014 0.106-0.036 0.21-0.052 0.32v2.864c0.058 0.66 0.118 1.316 0.184 1.972 0.312 3.094 1.07 6.078 2.094 9.004 1.77 5.054 4.502 9.538 8.082 13.502 0.766 0.844 1.672 1.586 2.602 2.25 1.86 1.332 3.926 1.52 6.082 0.852 0.93-0.29 1.854-0.614 2.758-0.968 1.746-0.692 3.532-1.208 5.422-1.244 1.942-0.04 3.78 0.464 5.556 1.196 1.248 0.512 2.512 0.958 3.844 1.192 2.29 0.406 4.29-0.242 6.086-1.64 1.428-1.114 2.552-2.5 3.642-3.93 2.528-3.324 4.526-6.93 5.836-10.906 0.036-0.114 0.074-0.222 0.114-0.332-5.048-2.52-8.168-6.406-8.564-12.164zM512.042 674.432a10.104 10.104 0 0 0 3.22-0.338c2.136-0.598 3.868-1.832 5.348-3.438 1.95-2.108 3.304-4.536 3.838-7.378a14.218 14.218 0 0 0 0.17-3.662h-0.458l-0.54 0.098c-3.742 0.75-6.832 2.558-9.146 5.632-1.952 2.582-2.982 5.456-2.762 8.73 0.014 0.24 0.07 0.342 0.33 0.356z" fill="#323232" p-id="10356"></path><path d="M736.116 263.05H186.254a8.872 8.872 0 0 0-8.87 8.872v342.468a8.872 8.872 0 0 0 8.87 8.872h86.188l463.674-360.212z" fill="#1669AD" p-id="10357"></path></svg>