<svg t="1632848582431" class="icon" viewBox="0 0 1024 1024" version="1.1" xmlns="http://www.w3.org/2000/svg" p-id="13356" width="300" height="300"><path d="M512 512m-512 0a512 512 0 1 0 1024 0 512 512 0 1 0-1024 0Z" fill="#2179A6" p-id="13357"></path><path d="M464 493.032V259.072c-80 12.648-145.072 25.248-224 37.88v198.912c78.928-0.92 144-1.904 224-2.832zM496 492.568c80-0.96 177.072-1.872 256-2.832V215.04c-78.928 12.648-176 25.24-256 37.896v239.632zM499.2 531.44c-0.032 79.872 0 159.752 0 239.632 78.92 12.648 173.856 25.248 252.8 37.88V534.264c-78.928-0.936-173.856-1.88-252.8-2.824zM464 530.968c-80-0.952-145.072-1.888-224-2.84V727.04c78.928 12.648 144 25.24 224 37.888V530.968z" fill="#F5F5F5" p-id="13358"></path></svg>